<svg xmlns="http://www.w3.org/2000/svg" viewBox="0 0 114.25 182.64"><defs><style>.cls-1,.cls-2,.cls-4,.cls-5,.cls-6{fill:none;stroke-linejoin:round;}.cls-1,.cls-4{stroke:#020202;}.cls-1{stroke-width:0.2px;}.cls-2,.cls-6{stroke:#27292d;stroke-linecap:round;}.cls-2{stroke-width:0.25px;}.cls-3{fill:#66dfff;stroke:#e5e5e5;opacity:0.2;}.cls-3,.cls-6{stroke-width:0.5px;}.cls-4{stroke-width:0.15px;}.cls-5{stroke:#3bd5ff;}</style></defs><g id="Livello_2" data-name="Livello 2"><g id="Livello_1-2" data-name="Livello 1"><path class="cls-1" d="M18.12,152.92,57,131.32l39,21.6v-.2l-19.1,10.61a40.28,40.28,0,0,1-39.9-.11l-18.79-10.5v.2Z"/><path class="cls-2" d="M57,131.33l.1-122.5M96,152.72l.1,13.5-19.29,10.9c-13.21,7.3-26.8,7.1-39.8-.1l-18.8-10.8v-13.8"/><path class="cls-3" d="M96,152.63l-19.1,10.8a40.85,40.85,0,0,1-39.8-.2l-18.89-10.5V51.12L37.12,61.43a40.11,40.11,0,0,0,39.8,0L96,51.12Z"/><path class="cls-2" d="M18.23,166.22l-10.11,6.5m88-6.5,10.11,5.5"/><path class="cls-2" d="M106.23,171.72l7.89-4.3V31.73l-8,4.29Z"/><path class="cls-2" d="M8.12,172.72l-8-4.39V31.73l8,4.29Z"/><path class="cls-4" d="M18.12,152.83l18.71,10.3c12.7,6.89,27.6,7.3,40.4.1l18.7-10.4"/><path class="cls-2" d="M57.12.12.12,31.73l8,4.29,49-27.2,49,27.2,8-4.29Z"/><path class="cls-1" d="M96,152.63l-19.1,10.8a40.85,40.85,0,0,1-39.8-.2l-18.89-10.5V51.12L37.12,61.43a40.11,40.11,0,0,0,39.8,0L96,51.12Z"/><path class="cls-5" d="M32.73,160.52V58.93m49.7,101.59V58.93"/><path class="cls-5" d="M96,152.63l-19.1,10.8a40.85,40.85,0,0,1-39.8-.2l-18.89-10.5V51.12L37.12,61.43a40.11,40.11,0,0,0,39.8,0L96,51.12Z"/><path class="cls-6" d="M79.52,117.84a.37.37,0,0,0,.1-.3v-11.8c0-.1-.1-.2-.2-.3s-.1-.1-.2-.1l-1.1-.7-.1-.1h0l-.1.1-.1.1h-.2c-.1.1-.3.1-.4.2s-.1.1-.2.1v1.1h0l.1.1,1,.7.1.1.1.1v9.1L78,116h0l-.1.1-.6.3a.35.35,0,0,0-.2.1h0v1h0l.1.1,1,.6a.37.37,0,0,0,.3.1h.1c.3-.1.5-.3.8-.4A.1.1,0,0,0,79.52,117.84Z"/></g></g></svg>