<svg xmlns="http://www.w3.org/2000/svg" viewBox="0 0 114.25 182.64"><defs><style>.cls-1,.cls-2,.cls-4,.cls-5,.cls-6{fill:none;stroke-linejoin:round;}.cls-1,.cls-4{stroke:#020202;}.cls-1{stroke-width:0.2px;}.cls-2,.cls-6{stroke:#27292d;stroke-linecap:round;}.cls-2{stroke-width:0.25px;}.cls-3{fill:#66dfff;stroke:#e5e5e5;opacity:0.2;}.cls-3,.cls-6{stroke-width:0.5px;}.cls-4{stroke-width:0.15px;}.cls-5{stroke:#3bd5ff;}</style></defs><g id="Livello_2" data-name="Livello 2"><g id="Livello_1-2" data-name="Livello 1"><path class="cls-1" d="M96.12,152.92l-38.89-21.6-39,21.6v-.2l19.1,10.61a40.28,40.28,0,0,0,39.9-.11L96,152.72v.2Z"/><path class="cls-2" d="M57.23,131.33,57.12,8.83M18.23,152.72l-.11,13.5,19.3,10.9c13.2,7.3,26.8,7.1,39.8-.1L96,166.22v-13.8"/><path class="cls-3" d="M18.23,152.63l19.1,10.8a40.83,40.83,0,0,0,39.79-.2L96,152.73V51.12L77.12,61.43a40.09,40.09,0,0,1-39.79,0L18.23,51.12Z"/><path class="cls-2" d="M96,166.22l10.1,6.5m-88-6.5L8,171.72"/><path class="cls-2" d="M8,171.72l-7.9-4.3V31.73l8,4.29Z"/><path class="cls-2" d="M106.12,172.72l8-4.39V31.73l-8,4.29Z"/><path class="cls-4" d="M96.12,152.83l-18.7,10.3c-12.7,6.89-27.6,7.3-40.4.1l-18.7-10.4"/><path class="cls-2" d="M57.12.12l57,31.61-8,4.29-49-27.2L8.12,36l-8-4.29Z"/><path class="cls-1" d="M18.23,152.63l19.1,10.8a40.83,40.83,0,0,0,39.79-.2L96,152.73V51.12L77.12,61.43a40.09,40.09,0,0,1-39.79,0L18.23,51.12Z"/><path class="cls-5" d="M81.52,160.52V58.93M31.82,160.52V58.93"/><path class="cls-5" d="M18.23,152.63l19.1,10.8a40.83,40.83,0,0,0,39.79-.2L96,152.73V51.12L77.12,61.43a40.09,40.09,0,0,1-39.79,0L18.23,51.12Z"/><path class="cls-6" d="M34.73,117.84a.37.37,0,0,1-.1-.3v-11.8c0-.1.1-.2.2-.3s.1-.1.2-.1l1.1-.7.1-.1h0l.1.1.1.1h.2c.1.1.3.1.4.2s.1.1.2.1v1.1h0l-.1.1-1,.7-.1.1-.1.1v9.1l.3-.2h0l.1.1.6.3a.35.35,0,0,1,.2.1h0v1h0l-.1.1-1,.6a.37.37,0,0,1-.3.1h-.1c-.3-.1-.5-.3-.8-.4A.1.1,0,0,1,34.73,117.84Z"/></g></g></svg>