<svg xmlns="http://www.w3.org/2000/svg" viewBox="0 0 138.56 183.05"><defs><style>.cls-1,.cls-2,.cls-3{fill:none;}.cls-1{stroke:#27292d;stroke-linecap:round;stroke-width:0.25px;}.cls-1,.cls-3{stroke-linejoin:round;}.cls-2{stroke:#fff;stroke-miterlimit:22.93;stroke-width:0.1px;}.cls-3{stroke:#3bd5ff;}.cls-4{fill:#66dfff;opacity:0.2;}</style></defs><g id="Livello_2" data-name="Livello 2"><g id="Livello_1-2" data-name="Livello 1"><path class="cls-1" d="M130.27,169.32V57.63l7.95-4.6.22,112Z"/><path class="cls-2" d="M7.83,143.32l.3-111.8,39-21.5.2,111.6Z"/><path class="cls-1" d="M34.23,103.42a7.37,7.37,0,0,1,1.29-.69C43,98.42,51,97.33,58,101.42l44.1,25.4c7.7,4.4,8.5,11.3,1.5,15.2-7.4,4.2-19.4,3-26.3-1.1l-42.7-24.7c-9.2-5.1-6.6-8.6-.4-12.8Z"/><path class="cls-1" d="M.13,26,47.33.12,138.23,53l-7.9,4.5v.2L47.73,9.92l-39,21.41v111.8L.12,138Z"/><path class="cls-1" d="M8.73,31.33v111.8L.12,138V26L47.33.12,138.23,53l-7.9,4.5v.2L47.73,9.92,48,92.19M8.52,143.13l7.8-4.5.81-29.8,75,44.29v29.61m-75.8-44.1,75.8,44.3M.13,26l8.6,5.3"/><path class="cls-3" d="M71.23,139.38,18,108.12V42.83l18.3,10.7L71.23,74v65.36Z"/><polyline class="cls-1" points="92.33 182.63 123.22 165.13 123.22 135.43 92.13 153.13"/><line class="cls-1" x1="123.22" y1="165.12" x2="130.27" y2="169.32"/><polyline class="cls-1" points="123.22 135.43 48.01 92.19 17.13 108.83"/><path class="cls-4" d="M71.17,139.09,18,108.59V43.29L36.68,54,71.17,73.73v65.36Z"/><line class="cls-3" x1="44.63" y1="58.48" x2="44.63" y2="123.86"/><line class="cls-3" x1="22.51" y1="45.79" x2="22.51" y2="111.17"/></g></g></svg>