{
    "asset" : {
        "generator" : "Khronos glTF Blender I/O v3.4.50",
        "version" : "2.0"
    },
    "scene" : 0,
    "scenes" : [
        {
            "name" : "Scene",
            "nodes" : [
                0
            ]
        }
    ],
    "nodes" : [
        {
            "mesh" : 0,
            "name" : "rain",
            "rotation" : [
                0,
                0.7071068286895752,
                0,
                0.7071068286895752
            ],
            "scale" : [
                0.02857143245637417,
                0.02857143245637417,
                0.02857142873108387
            ],
            "translation" : [
                2.4840831756591797,
                2.3161098957061768,
                -4.722155570983887
            ]
        }
    ],
    "materials" : [
        {
            "name" : "T60480-BL-B1",
            "pbrMetallicRoughness" : {
                "baseColorTexture" : {
                    "index" : 0
                },
                "metallicFactor" : 0,
                "roughnessFactor" : 0.6000000238418579
            }
        },
        {
            "name" : "T66675-BL-B1",
            "pbrMetallicRoughness" : {
                "baseColorTexture" : {
                    "index" : 1
                },
                "metallicFactor" : 0.5017149448394775,
                "roughnessFactor" : 0.3309832215309143
            }
        },
        {
            "name" : "Material1",
            "pbrMetallicRoughness" : {
                "baseColorFactor" : [
                    0.5843139886856079,
                    0.5843139886856079,
                    0.5843139886856079,
                    1
                ],
                "metallicFactor" : 0,
                "roughnessFactor" : 0.6000000238418579
            }
        }
    ],
    "meshes" : [
        {
            "name" : "Material2.249",
            "primitives" : [
                {
                    "attributes" : {
                        "POSITION" : 0,
                        "TEXCOORD_0" : 1,
                        "NORMAL" : 2
                    },
                    "indices" : 3,
                    "material" : 0
                },
                {
                    "attributes" : {
                        "POSITION" : 4,
                        "TEXCOORD_0" : 5,
                        "NORMAL" : 6
                    },
                    "indices" : 7,
                    "material" : 1
                },
                {
                    "attributes" : {
                        "POSITION" : 8,
                        "TEXCOORD_0" : 9,
                        "NORMAL" : 10
                    },
                    "indices" : 11,
                    "material" : 2
                }
            ]
        }
    ],
    "textures" : [
        {
            "sampler" : 0,
            "source" : 0
        },
        {
            "sampler" : 0,
            "source" : 1
        }
    ],
    "images" : [
        {
            "mimeType" : "image/jpeg",
            "name" : "T60480-BL-B1_baseColor",
            "uri" : "T60480-BL-B1_baseColor.jpg"
        },
        {
            "mimeType" : "image/jpeg",
            "name" : "T66675-BL-B1_baseColor",
            "uri" : "T66675-BL-B1_baseColor.jpg"
        }
    ],
    "accessors" : [
        {
            "bufferView" : 0,
            "componentType" : 5126,
            "count" : 16733,
            "max" : [
                0.04332486540079117,
                0.05047864466905594,
                0.0353410504758358
            ],
            "min" : [
                -0.04317343980073929,
                -0.0038700662553310394,
                -0.1687333881855011
            ],
            "type" : "VEC3"
        },
        {
            "bufferView" : 1,
            "componentType" : 5126,
            "count" : 16733,
            "type" : "VEC2"
        },
        {
            "bufferView" : 2,
            "componentType" : 5126,
            "count" : 16733,
            "type" : "VEC3"
        },
        {
            "bufferView" : 3,
            "componentType" : 5123,
            "count" : 24858,
            "type" : "SCALAR"
        },
        {
            "bufferView" : 4,
            "componentType" : 5126,
            "count" : 412,
            "max" : [
                0.00829658005386591,
                0.04864604026079178,
                -0.13504256308078766
            ],
            "min" : [
                -0.008122134022414684,
                0.03222724050283432,
                -0.1546388566493988
            ],
            "type" : "VEC3"
        },
        {
            "bufferView" : 5,
            "componentType" : 5126,
            "count" : 412,
            "type" : "VEC2"
        },
        {
            "bufferView" : 6,
            "componentType" : 5126,
            "count" : 412,
            "type" : "VEC3"
        },
        {
            "bufferView" : 7,
            "componentType" : 5123,
            "count" : 1650,
            "type" : "SCALAR"
        },
        {
            "bufferView" : 8,
            "componentType" : 5126,
            "count" : 4691,
            "max" : [
                0.03543788939714432,
                -0.0038699968717992306,
                0.027623042464256287
            ],
            "min" : [
                -0.035375867038965225,
                -0.005050916690379381,
                -0.01389945950359106
            ],
            "type" : "VEC3"
        },
        {
            "bufferView" : 9,
            "componentType" : 5126,
            "count" : 4691,
            "type" : "VEC2"
        },
        {
            "bufferView" : 10,
            "componentType" : 5126,
            "count" : 4691,
            "type" : "VEC3"
        },
        {
            "bufferView" : 11,
            "componentType" : 5123,
            "count" : 10608,
            "type" : "SCALAR"
        }
    ],
    "bufferViews" : [
        {
            "buffer" : 0,
            "byteLength" : 200796,
            "byteOffset" : 0,
            "target" : 34962
        },
        {
            "buffer" : 0,
            "byteLength" : 133864,
            "byteOffset" : 200796,
            "target" : 34962
        },
        {
            "buffer" : 0,
            "byteLength" : 200796,
            "byteOffset" : 334660,
            "target" : 34962
        },
        {
            "buffer" : 0,
            "byteLength" : 49716,
            "byteOffset" : 535456,
            "target" : 34963
        },
        {
            "buffer" : 0,
            "byteLength" : 4944,
            "byteOffset" : 585172,
            "target" : 34962
        },
        {
            "buffer" : 0,
            "byteLength" : 3296,
            "byteOffset" : 590116,
            "target" : 34962
        },
        {
            "buffer" : 0,
            "byteLength" : 4944,
            "byteOffset" : 593412,
            "target" : 34962
        },
        {
            "buffer" : 0,
            "byteLength" : 3300,
            "byteOffset" : 598356,
            "target" : 34963
        },
        {
            "buffer" : 0,
            "byteLength" : 56292,
            "byteOffset" : 601656,
            "target" : 34962
        },
        {
            "buffer" : 0,
            "byteLength" : 37528,
            "byteOffset" : 657948,
            "target" : 34962
        },
        {
            "buffer" : 0,
            "byteLength" : 56292,
            "byteOffset" : 695476,
            "target" : 34962
        },
        {
            "buffer" : 0,
            "byteLength" : 21216,
            "byteOffset" : 751768,
            "target" : 34963
        }
    ],
    "samplers" : [
        {
            "magFilter" : 9729,
            "minFilter" : 9987
        }
    ],
    "buffers" : [
        {
            "byteLength" : 772984,
            "uri" : "water.bin"
        }
    ]
}
