<svg xmlns="http://www.w3.org/2000/svg" viewBox="0 0 140.89 182.65"><defs><style>.cls-1{fill:#fff;}.cls-1,.cls-2{stroke:#27292d;stroke-linecap:round;stroke-width:0.25px;}.cls-1,.cls-2,.cls-4{stroke-linejoin:round;}.cls-2,.cls-4{fill:none;}.cls-3{fill:#66dfff;opacity:0.2;}.cls-4{stroke:#3bd5ff;}</style></defs><g id="Livello_2" data-name="Livello 2"><g id="Livello_1-2" data-name="Livello 1"><path class="cls-1" d="M13.76,135.62l79.7,46.9,31.8-19.5-.1-8.5L46,108.82l-32.4,18Z"/><path class="cls-2" d="M13.56,126.82l79.2,46.1,32.4-18.4"/><path class="cls-3" d="M69.36,155.36l-51.84-30.6V31.34L69.36,62.13Z"/><path class="cls-2" d="M7.62,139.84l-7.5-4.3v-109l7.5,4.19Z"/><path class="cls-2" d="M133.26,167.52l7.5-4.2V51.3l-7.5,4.2Z"/><path class="cls-2" d="M46,108.74V8.62"/><polygon class="cls-2" points="7.63 30.73 46.02 8.63 133.26 55.5 140.76 51.3 46.02 0.13 0.13 26.52 7.63 30.73 7.63 30.73"/><line class="cls-2" x1="7.63" y1="139.84" x2="13.76" y2="135.63"/><line class="cls-2" x1="125.26" y1="163.02" x2="133.26" y2="167.52"/><path class="cls-4" d="M69.36,155.36l-51.84-30.6V31.34L69.36,62.13Z"/></g></g></svg>