{
    "asset" : {
        "generator" : "Khronos glTF Blender I/O v3.4.50",
        "version" : "2.0"
    },
    "scene" : 0,
    "scenes" : [
        {
            "name" : "Scene",
            "nodes" : [
                0
            ]
        }
    ],
    "nodes" : [
        {
            "mesh" : 0,
            "name" : "water",
            "rotation" : [
                -0.5,
                0.5000000596046448,
                0.5,
                0.4999999403953552
            ],
            "scale" : [
                0.028571436181664467,
                0.02857143245637417,
                0.02857143245637417
            ],
            "translation" : [
                3.192744255065918,
                0.17997708916664124,
                -3.3237905502319336
            ]
        }
    ],
    "materials" : [
        {
            "name" : "Cream_Ceramic",
            "pbrMetallicRoughness" : {
                "baseColorFactor" : [
                    0.9098039865493774,
                    0.9098039865493774,
                    0.9098039865493774,
                    1
                ],
                "metallicFactor" : 0.35537347197532654,
                "roughnessFactor" : 0.7578125
            }
        },
        {
            "name" : "chrome_blurry",
            "pbrMetallicRoughness" : {
                "baseColorFactor" : [
                    0.10980399698019028,
                    0.10980399698019028,
                    0.10980399698019028,
                    1
                ],
                "metallicFactor" : 0.4468368887901306,
                "roughnessFactor" : 0.27610519528388977
            }
        },
        {
            "name" : "Silver",
            "pbrMetallicRoughness" : {
                "baseColorFactor" : [
                    0.6666669845581055,
                    0.6666669845581055,
                    0.6666669845581055,
                    1
                ],
                "metallicFactor" : 0.7639100551605225,
                "roughnessFactor" : 0.2700076103210449
            }
        },
        {
            "name" : "Material_11",
            "pbrMetallicRoughness" : {
                "baseColorTexture" : {
                    "index" : 0
                },
                "metallicFactor" : 0,
                "roughnessFactor" : 0.6000000238418579
            }
        },
        {
            "name" : "ROLOPH",
            "pbrMetallicRoughness" : {
                "baseColorTexture" : {
                    "index" : 1
                },
                "metallicFactor" : 0,
                "roughnessFactor" : 0.6000000238418579
            }
        },
        {
            "name" : "Carpet_Loop_Pattern_2_19",
            "pbrMetallicRoughness" : {
                "metallicFactor" : 0,
                "roughnessFactor" : 0
            }
        },
        {
            "name" : "Carpet_Loop_Pattern_2",
            "pbrMetallicRoughness" : {
                "baseColorTexture" : {
                    "index" : 2
                },
                "metallicFactor" : 0,
                "roughnessFactor" : 0.6000000238418579
            }
        }
    ],
    "meshes" : [
        {
            "name" : "Material2.571",
            "primitives" : [
                {
                    "attributes" : {
                        "POSITION" : 0,
                        "TEXCOORD_0" : 1,
                        "NORMAL" : 2
                    },
                    "indices" : 3,
                    "material" : 0
                },
                {
                    "attributes" : {
                        "POSITION" : 4,
                        "TEXCOORD_0" : 5,
                        "NORMAL" : 6
                    },
                    "indices" : 7,
                    "material" : 1
                },
                {
                    "attributes" : {
                        "POSITION" : 8,
                        "TEXCOORD_0" : 9,
                        "NORMAL" : 10
                    },
                    "indices" : 11,
                    "material" : 2
                },
                {
                    "attributes" : {
                        "POSITION" : 12,
                        "TEXCOORD_0" : 13,
                        "NORMAL" : 14
                    },
                    "indices" : 15,
                    "material" : 3
                },
                {
                    "attributes" : {
                        "POSITION" : 16,
                        "TEXCOORD_0" : 17,
                        "NORMAL" : 18
                    },
                    "indices" : 19,
                    "material" : 4
                },
                {
                    "attributes" : {
                        "POSITION" : 20,
                        "TEXCOORD_0" : 21,
                        "NORMAL" : 22
                    },
                    "indices" : 23,
                    "material" : 5
                },
                {
                    "attributes" : {
                        "POSITION" : 24,
                        "TEXCOORD_0" : 25,
                        "NORMAL" : 26
                    },
                    "indices" : 27,
                    "material" : 6
                }
            ]
        }
    ],
    "textures" : [
        {
            "sampler" : 0,
            "source" : 0
        },
        {
            "sampler" : 0,
            "source" : 1
        },
        {
            "sampler" : 0,
            "source" : 2
        }
    ],
    "images" : [
        {
            "mimeType" : "image/jpeg",
            "name" : "Material_11_baseColor",
            "uri" : "Material_11_baseColor.jpg"
        },
        {
            "mimeType" : "image/jpeg",
            "name" : "ROLOPH_baseColor",
            "uri" : "ROLOPH_baseColor.jpg"
        },
        {
            "mimeType" : "image/jpeg",
            "name" : "Carpet_Loop_Pattern_2_baseColor",
            "uri" : "Carpet_Loop_Pattern_2_baseColor.jpg"
        }
    ],
    "accessors" : [
        {
            "bufferView" : 0,
            "componentType" : 5126,
            "count" : 2312,
            "max" : [
                0.12465286254882812,
                0.146392822265625,
                0.3454749584197998
            ],
            "min" : [
                -0.1745605617761612,
                -0.14494705200195312,
                -0.09940662235021591
            ],
            "type" : "VEC3"
        },
        {
            "bufferView" : 1,
            "componentType" : 5126,
            "count" : 2312,
            "type" : "VEC2"
        },
        {
            "bufferView" : 2,
            "componentType" : 5126,
            "count" : 2312,
            "type" : "VEC3"
        },
        {
            "bufferView" : 3,
            "componentType" : 5123,
            "count" : 10236,
            "type" : "SCALAR"
        },
        {
            "bufferView" : 4,
            "componentType" : 5126,
            "count" : 13254,
            "max" : [
                0.3213386535644531,
                0.09975814074277878,
                0.05538565665483475
            ],
            "min" : [
                -0.2926177978515625,
                -0.2630577087402344,
                -0.09950926154851913
            ],
            "type" : "VEC3"
        },
        {
            "bufferView" : 5,
            "componentType" : 5126,
            "count" : 13254,
            "type" : "VEC2"
        },
        {
            "bufferView" : 6,
            "componentType" : 5126,
            "count" : 13254,
            "type" : "VEC3"
        },
        {
            "bufferView" : 7,
            "componentType" : 5123,
            "count" : 54930,
            "type" : "SCALAR"
        },
        {
            "bufferView" : 8,
            "componentType" : 5126,
            "count" : 1406,
            "max" : [
                -0.24455641210079193,
                0.062149059027433395,
                -0.06791018694639206
            ],
            "min" : [
                -0.27739715576171875,
                0.02930833026766777,
                -0.09940635412931442
            ],
            "type" : "VEC3"
        },
        {
            "bufferView" : 9,
            "componentType" : 5126,
            "count" : 1406,
            "type" : "VEC2"
        },
        {
            "bufferView" : 10,
            "componentType" : 5126,
            "count" : 1406,
            "type" : "VEC3"
        },
        {
            "bufferView" : 11,
            "componentType" : 5123,
            "count" : 2640,
            "type" : "SCALAR"
        },
        {
            "bufferView" : 12,
            "componentType" : 5126,
            "count" : 3831,
            "max" : [
                0.3075714111328125,
                0.1174163669347763,
                -0.017680052667856216
            ],
            "min" : [
                0.2239227294921875,
                0.0036315815523266792,
                -0.09036416560411453
            ],
            "type" : "VEC3"
        },
        {
            "bufferView" : 13,
            "componentType" : 5126,
            "count" : 3831,
            "type" : "VEC2"
        },
        {
            "bufferView" : 14,
            "componentType" : 5126,
            "count" : 3831,
            "type" : "VEC3"
        },
        {
            "bufferView" : 15,
            "componentType" : 5123,
            "count" : 11772,
            "type" : "SCALAR"
        },
        {
            "bufferView" : 16,
            "componentType" : 5126,
            "count" : 2576,
            "max" : [
                0.3075714111328125,
                0.09735869616270065,
                -0.03983262926340103
            ],
            "min" : [
                0.2239227294921875,
                0.06691740453243256,
                -0.07033407688140869
            ],
            "type" : "VEC3"
        },
        {
            "bufferView" : 17,
            "componentType" : 5126,
            "count" : 2576,
            "type" : "VEC2"
        },
        {
            "bufferView" : 18,
            "componentType" : 5126,
            "count" : 2576,
            "type" : "VEC3"
        },
        {
            "bufferView" : 19,
            "componentType" : 5123,
            "count" : 5700,
            "type" : "SCALAR"
        },
        {
            "bufferView" : 20,
            "componentType" : 5126,
            "count" : 3,
            "max" : [
                0.19415283203125,
                0.07312392443418503,
                0.0715985894203186
            ],
            "min" : [
                0.19339752197265625,
                0.07259749621152878,
                0.06911096721887589
            ],
            "type" : "VEC3"
        },
        {
            "bufferView" : 21,
            "componentType" : 5126,
            "count" : 3,
            "type" : "VEC2"
        },
        {
            "bufferView" : 22,
            "componentType" : 5126,
            "count" : 3,
            "type" : "VEC3"
        },
        {
            "bufferView" : 23,
            "componentType" : 5123,
            "count" : 3,
            "type" : "SCALAR"
        },
        {
            "bufferView" : 24,
            "componentType" : 5126,
            "count" : 9,
            "max" : [
                0.19596481323242188,
                0.11077117174863815,
                0.08760861307382584
            ],
            "min" : [
                0.19339752197265625,
                0.0868835374712944,
                0.07753657549619675
            ],
            "type" : "VEC3"
        },
        {
            "bufferView" : 25,
            "componentType" : 5126,
            "count" : 9,
            "type" : "VEC2"
        },
        {
            "bufferView" : 26,
            "componentType" : 5126,
            "count" : 9,
            "type" : "VEC3"
        },
        {
            "bufferView" : 27,
            "componentType" : 5123,
            "count" : 9,
            "type" : "SCALAR"
        }
    ],
    "bufferViews" : [
        {
            "buffer" : 0,
            "byteLength" : 27744,
            "byteOffset" : 0,
            "target" : 34962
        },
        {
            "buffer" : 0,
            "byteLength" : 18496,
            "byteOffset" : 27744,
            "target" : 34962
        },
        {
            "buffer" : 0,
            "byteLength" : 27744,
            "byteOffset" : 46240,
            "target" : 34962
        },
        {
            "buffer" : 0,
            "byteLength" : 20472,
            "byteOffset" : 73984,
            "target" : 34963
        },
        {
            "buffer" : 0,
            "byteLength" : 159048,
            "byteOffset" : 94456,
            "target" : 34962
        },
        {
            "buffer" : 0,
            "byteLength" : 106032,
            "byteOffset" : 253504,
            "target" : 34962
        },
        {
            "buffer" : 0,
            "byteLength" : 159048,
            "byteOffset" : 359536,
            "target" : 34962
        },
        {
            "buffer" : 0,
            "byteLength" : 109860,
            "byteOffset" : 518584,
            "target" : 34963
        },
        {
            "buffer" : 0,
            "byteLength" : 16872,
            "byteOffset" : 628444,
            "target" : 34962
        },
        {
            "buffer" : 0,
            "byteLength" : 11248,
            "byteOffset" : 645316,
            "target" : 34962
        },
        {
            "buffer" : 0,
            "byteLength" : 16872,
            "byteOffset" : 656564,
            "target" : 34962
        },
        {
            "buffer" : 0,
            "byteLength" : 5280,
            "byteOffset" : 673436,
            "target" : 34963
        },
        {
            "buffer" : 0,
            "byteLength" : 45972,
            "byteOffset" : 678716,
            "target" : 34962
        },
        {
            "buffer" : 0,
            "byteLength" : 30648,
            "byteOffset" : 724688,
            "target" : 34962
        },
        {
            "buffer" : 0,
            "byteLength" : 45972,
            "byteOffset" : 755336,
            "target" : 34962
        },
        {
            "buffer" : 0,
            "byteLength" : 23544,
            "byteOffset" : 801308,
            "target" : 34963
        },
        {
            "buffer" : 0,
            "byteLength" : 30912,
            "byteOffset" : 824852,
            "target" : 34962
        },
        {
            "buffer" : 0,
            "byteLength" : 20608,
            "byteOffset" : 855764,
            "target" : 34962
        },
        {
            "buffer" : 0,
            "byteLength" : 30912,
            "byteOffset" : 876372,
            "target" : 34962
        },
        {
            "buffer" : 0,
            "byteLength" : 11400,
            "byteOffset" : 907284,
            "target" : 34963
        },
        {
            "buffer" : 0,
            "byteLength" : 36,
            "byteOffset" : 918684,
            "target" : 34962
        },
        {
            "buffer" : 0,
            "byteLength" : 24,
            "byteOffset" : 918720,
            "target" : 34962
        },
        {
            "buffer" : 0,
            "byteLength" : 36,
            "byteOffset" : 918744,
            "target" : 34962
        },
        {
            "buffer" : 0,
            "byteLength" : 6,
            "byteOffset" : 918780,
            "target" : 34963
        },
        {
            "buffer" : 0,
            "byteLength" : 108,
            "byteOffset" : 918788,
            "target" : 34962
        },
        {
            "buffer" : 0,
            "byteLength" : 72,
            "byteOffset" : 918896,
            "target" : 34962
        },
        {
            "buffer" : 0,
            "byteLength" : 108,
            "byteOffset" : 918968,
            "target" : 34962
        },
        {
            "buffer" : 0,
            "byteLength" : 18,
            "byteOffset" : 919076,
            "target" : 34963
        }
    ],
    "samplers" : [
        {
            "magFilter" : 9729,
            "minFilter" : 9987
        }
    ],
    "buffers" : [
        {
            "byteLength" : 919096,
            "uri" : "water.bin"
        }
    ]
}
