<svg xmlns="http://www.w3.org/2000/svg" viewBox="0 0 107.05 183.15"><defs><style>.cls-1,.cls-3,.cls-5,.cls-6{fill:none;stroke-linejoin:round;}.cls-1,.cls-6{stroke:#27292d;}.cls-1,.cls-3,.cls-6{stroke-linecap:round;}.cls-1{stroke-width:0.25px;}.cls-2,.cls-4{fill:#66dfff;opacity:0.2;}.cls-3{stroke:#000;stroke-width:0.75px;}.cls-4{stroke:#e5e5e5;}.cls-4,.cls-6{stroke-width:0.5px;}.cls-5{stroke:#3bd5ff;}</style></defs><g id="Livello_2" data-name="Livello 2"><g id="Livello_1-2" data-name="Livello 1"><path class="cls-1" d="M17,161.92l-9.5,5.5m46-39.5V8.62m0,174.2v-13m-36.25-21V162.1L53.6,183,89.92,162.1V148.85"/><polygon class="cls-1" points="7.63 167.32 0.13 163.72 0.13 30.93 7.63 35.23 7.63 167.32"/><polygon class="cls-1" points="99.22 166.32 106.72 162.03 106.92 30.93 99.42 35.23 99.22 166.32"/><path class="cls-1" d="M53.42,130.32l-36.2,18.5,36.3,21,36.3-21"/><polygon class="cls-1" points="53.52 8.63 7.63 35.33 0.13 30.82 53.52 0.13 106.92 30.82 99.42 35.33 53.52 8.63"/><polygon class="cls-2" points="53.52 167.82 88.33 147.72 88.33 69.13 88.33 43.83 53.52 63.52 53.52 167.82"/><polygon class="cls-3" points="53.52 167.93 88.33 147.82 88.33 69.22 88.33 43.92 53.52 63.63 53.52 167.93"/><polygon class="cls-4" points="53.52 167.93 18.73 147.82 18.73 69.22 18.82 43.92 53.52 63.63 53.52 167.93"/><polygon class="cls-3" points="53.52 167.93 18.73 147.82 18.73 69.22 18.82 43.92 53.52 63.63 53.52 167.93"/><polygon class="cls-5" points="18.73 69.22 18.82 43.92 53.52 63.63 53.42 167.72 18.73 147.82 18.73 69.22"/><line class="cls-1" x1="53.42" y1="130.32" x2="89.92" y2="148.73"/><polygon class="cls-5" points="88.33 69.22 88.33 43.92 53.52 63.63 53.73 167.72 88.33 147.82 88.33 69.22"/><path class="cls-6" d="M59,117.12a.36.36,0,0,0,.1-.29V105c0-.1-.1-.2-.2-.29s-.1-.11-.2-.11l-1.1-.7-.1-.1h0l-.1.1-.1.1h-.2c-.1.1-.3.1-.4.21s-.1.1-.2.1v1.1h0l.1.1,1,.7.1.1.1.1v9.1l-.3-.2h0l-.1.1-.6.3a.35.35,0,0,0-.2.1h0v1h0l.1.1,1,.6a.37.37,0,0,0,.3.1h.1c.3-.1.5-.3.8-.4A.1.1,0,0,0,59,117.12Z"/><line class="cls-1" x1="99.22" y1="166.32" x2="89.92" y2="162.02"/><path class="cls-5" d="M72.38,52.82V157"/></g></g></svg>