<svg xmlns="http://www.w3.org/2000/svg" viewBox="0 0 107.05 183.15"><defs><style>.cls-1,.cls-3,.cls-4,.cls-5{fill:none;stroke-linejoin:round;}.cls-1,.cls-5{stroke:#27292d;}.cls-1,.cls-3,.cls-5{stroke-linecap:round;}.cls-1{stroke-width:0.25px;}.cls-2{fill:#66dfff;opacity:0.2;}.cls-3{stroke:#000;stroke-width:0.75px;}.cls-4{stroke:#3bd5ff;}.cls-5{stroke-width:0.5px;}</style></defs><g id="Livello_2" data-name="Livello 2"><g id="Livello_1-2" data-name="Livello 1"><path class="cls-1" d="M17,161.92l-9.5,5.5m46-39.5V8.78m0,174v-13m-36.4-21.09V162l36.4,21,36.4-21V148.73"/><polygon class="cls-1" points="7.63 167.32 0.13 163.72 0.13 30.93 7.63 35.23 7.63 167.32"/><polygon class="cls-1" points="99.22 166.32 106.72 162.03 106.92 30.93 99.42 35.23 99.22 166.32"/><path class="cls-1" d="M89.92,148.82l-36.4,21-36.4-21m.4-.4-.4.3"/><polygon class="cls-1" points="53.52 8.63 7.63 35.33 0.13 30.82 53.52 0.13 106.92 30.82 99.42 35.33 53.52 8.63"/><polygon class="cls-2" points="54.33 167.93 89.13 147.82 89.13 69.22 89.13 43.92 54.33 63.63 54.33 167.93"/><polygon class="cls-3" points="53.52 167.93 88.33 147.82 88.33 69.22 88.33 43.92 53.52 63.63 53.52 167.93"/><polygon class="cls-2" points="53.52 167.93 18.73 147.82 18.73 69.22 18.82 43.92 53.52 63.63 53.52 167.93"/><polygon class="cls-3" points="53.52 167.93 18.73 147.82 18.73 69.22 18.82 43.92 53.52 63.63 53.52 167.93"/><line class="cls-1" x1="17.13" y1="148.72" x2="53.42" y2="130.32"/><polygon class="cls-4" points="18.73 69.22 18.82 43.92 53.52 63.63 53.42 167.72 18.73 147.82 18.73 69.22"/><line class="cls-1" x1="53.42" y1="130.32" x2="89.92" y2="148.67"/><polygon class="cls-4" points="88.33 69.22 88.33 43.92 53.52 63.63 53.73 167.72 88.33 147.82 88.33 69.22"/><path class="cls-4" d="M45.55,59V163.17"/><path class="cls-5" d="M40.12,115.18a.37.37,0,0,1-.1-.3v-11.8c0-.1.1-.2.2-.3s.1-.1.2-.1l1.1-.7.1-.1h0l.11.1.1.1H42c.1.1.3.1.4.2s.1.1.19.1v1.1h0l-.1.1-1,.7-.1.1-.1.1v9.1l.3-.2h0l.1.1.6.3a.31.31,0,0,1,.2.1h0v1h0l-.1.1-1,.6a.37.37,0,0,1-.3.1H41c-.3-.1-.5-.3-.8-.4C40.23,115.28,40.12,115.28,40.12,115.18Z"/><line class="cls-1" x1="99.22" y1="166.32" x2="89.92" y2="162.02"/></g></g></svg>