<svg xmlns="http://www.w3.org/2000/svg" viewBox="0 0 107.05 183.15"><defs><style>.cls-1,.cls-3{fill:#66dfff;opacity:0.2;}.cls-1,.cls-5{stroke:#3bd5ff;}.cls-1,.cls-2,.cls-4,.cls-5,.cls-6{stroke-linejoin:round;}.cls-2,.cls-4,.cls-5,.cls-6{fill:none;}.cls-2,.cls-6{stroke:#27292d;}.cls-2,.cls-4,.cls-6{stroke-linecap:round;}.cls-2{stroke-width:0.25px;}.cls-4{stroke:#000;stroke-width:0.75px;}.cls-6{stroke-width:0.5px;}</style></defs><g id="Livello_2" data-name="Livello 2"><g id="Livello_1-2" data-name="Livello 1"><polygon class="cls-1" points="88.33 69.22 88.22 43.92 53.52 63.63 53.63 167.72 88.33 147.82 88.33 69.22"/><path class="cls-2" d="M90,161.92l9.5,5.5m-46-39.5V8.78m0,174v-13m36.4-21.09V162l-36.4,21-36.4-21V148.73"/><polygon class="cls-2" points="99.42 167.32 106.92 163.72 106.92 30.93 99.42 35.23 99.42 167.32"/><polygon class="cls-2" points="7.83 166.32 0.33 162.03 0.13 30.93 7.63 35.23 7.83 166.32"/><path class="cls-2" d="M17.12,148.82l36.4,21,36.4-21m-.4-.4.4.3"/><polygon class="cls-2" points="53.52 8.63 99.42 35.33 106.92 30.82 53.52 0.13 0.13 30.82 7.63 35.33 53.52 8.63"/><polygon class="cls-3" points="52.73 167.93 17.93 147.82 17.93 69.22 17.93 43.92 52.73 63.63 52.73 167.93"/><polygon class="cls-4" points="53.52 167.93 18.73 147.82 18.73 69.22 18.73 43.92 53.52 63.63 53.52 167.93"/><polygon class="cls-5" points="53.52 167.93 88.33 147.82 88.33 69.22 88.22 43.92 53.52 63.63 53.52 167.93"/><line class="cls-2" x1="89.92" y1="148.72" x2="53.63" y2="130.32"/><line class="cls-2" x1="53.63" y1="130.32" x2="17.13" y2="148.67"/><polygon class="cls-5" points="18.73 69.22 18.73 43.92 53.52 63.63 53.33 167.72 18.73 147.82 18.73 69.22"/><path class="cls-5" d="M61.5,59V163.17"/><path class="cls-6" d="M66.92,115.18a.37.37,0,0,0,.1-.3v-11.8c0-.1-.1-.2-.2-.3s-.1-.1-.2-.1l-1.1-.7-.1-.1h0l-.1.1-.1.1H65c-.1.1-.3.1-.4.2s-.1.1-.2.1v1.1h0l.1.1,1,.7.1.1.11.1v9.1l-.3-.2h0l-.11.1-.6.3a.35.35,0,0,0-.2.1h0v1h0l.1.1,1,.6a.39.39,0,0,0,.31.1H66c.3-.1.5-.3.8-.4A.1.1,0,0,0,66.92,115.18Z"/><line class="cls-2" x1="7.82" y1="166.32" x2="17.13" y2="162.02"/></g></g></svg>