{
    "asset" : {
        "generator" : "Khronos glTF Blender I/O v1.7.33",
        "version" : "2.0"
    },
    "scene" : 0,
    "scenes" : [
        {
            "name" : "Scene",
            "nodes" : [
                5,
                6,
                7
            ]
        }
    ],
    "nodes" : [
        {
            "extras" : {
                "ant_landscape" : {}
            },
            "mesh" : 0,
            "name" : "cerniere",
            "translation" : [
                1.3508176803588867,
                -0.005275821313261986,
                0.9653722047805786
            ]
        },
        {
            "extras" : {
                "ant_landscape" : {}
            },
            "mesh" : 1,
            "name" : "frame",
            "translation" : [
                1.3508176803588867,
                -0.005275821313261986,
                0.9653722047805786
            ]
        },
        {
            "extras" : {
                "ant_landscape" : {}
            },
            "mesh" : 2,
            "name" : "panel",
            "translation" : [
                1.3508176803588867,
                -0.005275821313261986,
                0.9653722047805786
            ]
        },
        {
            "extras" : {
                "ant_landscape" : {}
            },
            "mesh" : 3,
            "name" : "pomello",
            "translation" : [
                1.3508176803588867,
                -0.005275821313261986,
                0.9653722047805786
            ]
        },
        {
            "mesh" : 4,
            "name" : "walldoor",
            "translation" : [
                0,
                0.0014713057316839695,
                0
            ]
        },
        {
            "children" : [
                0,
                1,
                2,
                3,
                4
            ],
            "extras" : {
                "ant_landscape" : {}
            },
            "mesh" : 5,
            "name" : "door",
            "translation" : [
                -1.3508176803588867,
                0.005275821313261986,
                -0.9653722047805786
            ]
        },
        {
            "extras" : {
                "ant_landscape" : {}
            },
            "mesh" : 6,
            "name" : "wall",
            "scale" : [
                1.8757022619247437,
                1.2885245084762573,
                1.8757022619247437
            ]
        },
        {
            "mesh" : 7,
            "name" : "floor",
            "scale" : [
                1.8757022619247437,
                1.2885245084762573,
                1.8757022619247437
            ]
        }
    ],
    "materials" : [
        {
            "doubleSided" : true,
            "name" : "metal",
            "pbrMetallicRoughness" : {
                "baseColorFactor" : [
                    0.800000011920929,
                    0.800000011920929,
                    0.800000011920929,
                    1
                ],
                "roughnessFactor" : 0.5
            }
        },
        {
            "doubleSided" : true,
            "name" : "glass1",
            "pbrMetallicRoughness" : {}
        },
        {
            "doubleSided" : true,
            "name" : "edgesblue",
            "pbrMetallicRoughness" : {}
        },
        {
            "doubleSided" : true,
            "emissiveFactor" : [
                1,
                1,
                1
            ],
            "emissiveTexture" : {
                "index" : 0
            },
            "name" : "Material.001",
            "pbrMetallicRoughness" : {}
        },
        {
            "doubleSided" : true,
            "emissiveFactor" : [
                1,
                1,
                1
            ],
            "emissiveTexture" : {
                "index" : 1
            },
            "name" : "walls",
            "pbrMetallicRoughness" : {}
        },
        {
            "doubleSided" : true,
            "emissiveFactor" : [
                1,
                1,
                1
            ],
            "emissiveTexture" : {
                "index" : 2
            },
            "name" : "floor",
            "pbrMetallicRoughness" : {}
        }
    ],
    "meshes" : [
        {
            "name" : "cernierem",
            "primitives" : [
                {
                    "attributes" : {
                        "POSITION" : 0,
                        "NORMAL" : 1,
                        "TEXCOORD_0" : 2
                    },
                    "indices" : 3,
                    "material" : 0
                }
            ]
        },
        {
            "name" : "framem",
            "primitives" : [
                {
                    "attributes" : {
                        "POSITION" : 4,
                        "NORMAL" : 5,
                        "TEXCOORD_0" : 6
                    },
                    "indices" : 7,
                    "material" : 0
                }
            ]
        },
        {
            "name" : "panelm",
            "primitives" : [
                {
                    "attributes" : {
                        "POSITION" : 8,
                        "NORMAL" : 9,
                        "TEXCOORD_0" : 10
                    },
                    "indices" : 11,
                    "material" : 1
                },
                {
                    "attributes" : {
                        "POSITION" : 12,
                        "NORMAL" : 13,
                        "TEXCOORD_0" : 14
                    },
                    "indices" : 15,
                    "material" : 2
                }
            ]
        },
        {
            "name" : "pomellom",
            "primitives" : [
                {
                    "attributes" : {
                        "POSITION" : 16,
                        "NORMAL" : 17,
                        "TEXCOORD_0" : 18
                    },
                    "indices" : 19,
                    "material" : 0
                }
            ]
        },
        {
            "name" : "walldoorm",
            "primitives" : [
                {
                    "attributes" : {
                        "POSITION" : 20,
                        "NORMAL" : 21,
                        "TEXCOORD_0" : 22
                    },
                    "indices" : 23,
                    "material" : 3
                }
            ]
        },
        {
            "name" : "doorm",
            "primitives" : [
                {
                    "attributes" : {
                        "POSITION" : 24,
                        "NORMAL" : 25,
                        "TEXCOORD_0" : 26
                    },
                    "indices" : 11,
                    "material" : 1
                },
                {
                    "attributes" : {
                        "POSITION" : 27,
                        "NORMAL" : 28,
                        "TEXCOORD_0" : 29
                    },
                    "indices" : 30,
                    "material" : 2
                }
            ]
        },
        {
            "name" : "wallm",
            "primitives" : [
                {
                    "attributes" : {
                        "POSITION" : 31,
                        "NORMAL" : 32,
                        "TEXCOORD_0" : 33
                    },
                    "indices" : 34,
                    "material" : 4
                }
            ]
        },
        {
            "name" : "floorm",
            "primitives" : [
                {
                    "attributes" : {
                        "POSITION" : 35,
                        "NORMAL" : 36,
                        "TEXCOORD_0" : 37
                    },
                    "indices" : 38,
                    "material" : 5
                }
            ]
        }
    ],
    "textures" : [
        {
            "sampler" : 0,
            "source" : 0
        },
        {
            "sampler" : 0,
            "source" : 1
        },
        {
            "sampler" : 0,
            "source" : 1
        }
    ],
    "images" : [
        {
            "mimeType" : "image/jpeg",
            "name" : "lightbaking copy.jpg.001",
            "uri" : "lightbaking%20copy.jpg"
        },
        {
            "mimeType" : "image/jpeg",
            "name" : "w2 copy.jpg",
            "uri" : "w2%20copy.jpg"
        }
    ],
    "accessors" : [
        {
            "bufferView" : 0,
            "componentType" : 5126,
            "count" : 160,
            "max" : [
                -1.292832374572754,
                1.7039365768432617,
                -0.9569196701049805
            ],
            "min" : [
                -1.3596034049987793,
                0.3833668828010559,
                -0.969470739364624
            ],
            "type" : "VEC3"
        },
        {
            "bufferView" : 1,
            "componentType" : 5126,
            "count" : 160,
            "type" : "VEC3"
        },
        {
            "bufferView" : 2,
            "componentType" : 5126,
            "count" : 160,
            "type" : "VEC2"
        },
        {
            "bufferView" : 3,
            "componentType" : 5123,
            "count" : 312,
            "type" : "SCALAR"
        },
        {
            "bufferView" : 4,
            "componentType" : 5126,
            "count" : 280,
            "max" : [
                -0.7050714492797852,
                2.0278372764587402,
                -0.957575798034668
            ],
            "min" : [
                -1.3570756912231445,
                2.7807942615254433e-09,
                -1.3760671615600586
            ],
            "type" : "VEC3"
        },
        {
            "bufferView" : 5,
            "componentType" : 5126,
            "count" : 280,
            "type" : "VEC3"
        },
        {
            "bufferView" : 6,
            "componentType" : 5126,
            "count" : 280,
            "type" : "VEC2"
        },
        {
            "bufferView" : 7,
            "componentType" : 5123,
            "count" : 528,
            "type" : "SCALAR"
        },
        {
            "bufferView" : 8,
            "componentType" : 5126,
            "count" : 8,
            "max" : [
                -0.7076318264007568,
                2.006747245788574,
                -0.9645066261291504
            ],
            "min" : [
                -0.7176318168640137,
                0.006747127044945955,
                -1.364506483078003
            ],
            "type" : "VEC3"
        },
        {
            "bufferView" : 9,
            "componentType" : 5126,
            "count" : 8,
            "type" : "VEC3"
        },
        {
            "bufferView" : 10,
            "componentType" : 5126,
            "count" : 8,
            "type" : "VEC2"
        },
        {
            "bufferView" : 11,
            "componentType" : 5123,
            "count" : 12,
            "type" : "SCALAR"
        },
        {
            "bufferView" : 12,
            "componentType" : 5126,
            "count" : 16,
            "max" : [
                -0.7076318264007568,
                2.006747245788574,
                -0.9645066261291504
            ],
            "min" : [
                -0.7176318168640137,
                0.006747127044945955,
                -1.364506483078003
            ],
            "type" : "VEC3"
        },
        {
            "bufferView" : 13,
            "componentType" : 5126,
            "count" : 16,
            "type" : "VEC3"
        },
        {
            "bufferView" : 14,
            "componentType" : 5126,
            "count" : 16,
            "type" : "VEC2"
        },
        {
            "bufferView" : 15,
            "componentType" : 5123,
            "count" : 24,
            "type" : "SCALAR"
        },
        {
            "bufferView" : 16,
            "componentType" : 5126,
            "count" : 136,
            "max" : [
                -0.7764749526977539,
                0.8924353122711182,
                -0.9399499893188477
            ],
            "min" : [
                -0.8049411773681641,
                0.8639688491821289,
                -0.9907941818237305
            ],
            "type" : "VEC3"
        },
        {
            "bufferView" : 17,
            "componentType" : 5126,
            "count" : 136,
            "type" : "VEC3"
        },
        {
            "bufferView" : 18,
            "componentType" : 5126,
            "count" : 136,
            "type" : "VEC2"
        },
        {
            "bufferView" : 19,
            "componentType" : 5123,
            "count" : 372,
            "type" : "SCALAR"
        },
        {
            "bufferView" : 20,
            "componentType" : 5126,
            "count" : 48,
            "max" : [
                0.6750271916389465,
                2.019639492034912,
                0.03457408770918846
            ],
            "min" : [
                -0.5225412845611572,
                -0.0042111873626708984,
                -0.8771820664405823
            ],
            "type" : "VEC3"
        },
        {
            "bufferView" : 21,
            "componentType" : 5126,
            "count" : 48,
            "type" : "VEC3"
        },
        {
            "bufferView" : 22,
            "componentType" : 5126,
            "count" : 48,
            "type" : "VEC2"
        },
        {
            "bufferView" : 23,
            "componentType" : 5123,
            "count" : 72,
            "type" : "SCALAR"
        },
        {
            "bufferView" : 24,
            "componentType" : 5126,
            "count" : 8,
            "max" : [
                0.628014087677002,
                2.001471519470215,
                0.004999995231628418
            ],
            "min" : [
                0,
                0.0014713057316839695,
                -0.004999995231628418
            ],
            "type" : "VEC3"
        },
        {
            "bufferView" : 25,
            "componentType" : 5126,
            "count" : 8,
            "type" : "VEC3"
        },
        {
            "bufferView" : 26,
            "componentType" : 5126,
            "count" : 8,
            "type" : "VEC2"
        },
        {
            "bufferView" : 27,
            "componentType" : 5126,
            "count" : 16,
            "max" : [
                0.628014087677002,
                2.001471519470215,
                0.004999995231628418
            ],
            "min" : [
                0,
                0.0014713057316839695,
                -0.004999995231628418
            ],
            "type" : "VEC3"
        },
        {
            "bufferView" : 28,
            "componentType" : 5126,
            "count" : 16,
            "type" : "VEC3"
        },
        {
            "bufferView" : 29,
            "componentType" : 5126,
            "count" : 16,
            "type" : "VEC2"
        },
        {
            "bufferView" : 30,
            "componentType" : 5123,
            "count" : 24,
            "type" : "SCALAR"
        },
        {
            "bufferView" : 31,
            "componentType" : 5126,
            "count" : 16,
            "max" : [
                5.932433605194092,
                2,
                3.9889142513275146
            ],
            "min" : [
                -0.9999999403953552,
                0,
                -1.0066523551940918
            ],
            "type" : "VEC3"
        },
        {
            "bufferView" : 32,
            "componentType" : 5126,
            "count" : 16,
            "type" : "VEC3"
        },
        {
            "bufferView" : 33,
            "componentType" : 5126,
            "count" : 16,
            "type" : "VEC2"
        },
        {
            "bufferView" : 34,
            "componentType" : 5123,
            "count" : 24,
            "type" : "SCALAR"
        },
        {
            "bufferView" : 35,
            "componentType" : 5126,
            "count" : 4,
            "max" : [
                5.916205883026123,
                0.005773491691797972,
                4.038564682006836
            ],
            "min" : [
                -0.9942264556884766,
                0.005773491691797972,
                -1.0008788108825684
            ],
            "type" : "VEC3"
        },
        {
            "bufferView" : 36,
            "componentType" : 5126,
            "count" : 4,
            "type" : "VEC3"
        },
        {
            "bufferView" : 37,
            "componentType" : 5126,
            "count" : 4,
            "type" : "VEC2"
        },
        {
            "bufferView" : 38,
            "componentType" : 5123,
            "count" : 6,
            "type" : "SCALAR"
        }
    ],
    "bufferViews" : [
        {
            "buffer" : 0,
            "byteLength" : 1920,
            "byteOffset" : 0
        },
        {
            "buffer" : 0,
            "byteLength" : 1920,
            "byteOffset" : 1920
        },
        {
            "buffer" : 0,
            "byteLength" : 1280,
            "byteOffset" : 3840
        },
        {
            "buffer" : 0,
            "byteLength" : 624,
            "byteOffset" : 5120
        },
        {
            "buffer" : 0,
            "byteLength" : 3360,
            "byteOffset" : 5744
        },
        {
            "buffer" : 0,
            "byteLength" : 3360,
            "byteOffset" : 9104
        },
        {
            "buffer" : 0,
            "byteLength" : 2240,
            "byteOffset" : 12464
        },
        {
            "buffer" : 0,
            "byteLength" : 1056,
            "byteOffset" : 14704
        },
        {
            "buffer" : 0,
            "byteLength" : 96,
            "byteOffset" : 15760
        },
        {
            "buffer" : 0,
            "byteLength" : 96,
            "byteOffset" : 15856
        },
        {
            "buffer" : 0,
            "byteLength" : 64,
            "byteOffset" : 15952
        },
        {
            "buffer" : 0,
            "byteLength" : 24,
            "byteOffset" : 16016
        },
        {
            "buffer" : 0,
            "byteLength" : 192,
            "byteOffset" : 16040
        },
        {
            "buffer" : 0,
            "byteLength" : 192,
            "byteOffset" : 16232
        },
        {
            "buffer" : 0,
            "byteLength" : 128,
            "byteOffset" : 16424
        },
        {
            "buffer" : 0,
            "byteLength" : 48,
            "byteOffset" : 16552
        },
        {
            "buffer" : 0,
            "byteLength" : 1632,
            "byteOffset" : 16600
        },
        {
            "buffer" : 0,
            "byteLength" : 1632,
            "byteOffset" : 18232
        },
        {
            "buffer" : 0,
            "byteLength" : 1088,
            "byteOffset" : 19864
        },
        {
            "buffer" : 0,
            "byteLength" : 744,
            "byteOffset" : 20952
        },
        {
            "buffer" : 0,
            "byteLength" : 576,
            "byteOffset" : 21696
        },
        {
            "buffer" : 0,
            "byteLength" : 576,
            "byteOffset" : 22272
        },
        {
            "buffer" : 0,
            "byteLength" : 384,
            "byteOffset" : 22848
        },
        {
            "buffer" : 0,
            "byteLength" : 144,
            "byteOffset" : 23232
        },
        {
            "buffer" : 0,
            "byteLength" : 96,
            "byteOffset" : 23376
        },
        {
            "buffer" : 0,
            "byteLength" : 96,
            "byteOffset" : 23472
        },
        {
            "buffer" : 0,
            "byteLength" : 64,
            "byteOffset" : 23568
        },
        {
            "buffer" : 0,
            "byteLength" : 192,
            "byteOffset" : 23632
        },
        {
            "buffer" : 0,
            "byteLength" : 192,
            "byteOffset" : 23824
        },
        {
            "buffer" : 0,
            "byteLength" : 128,
            "byteOffset" : 24016
        },
        {
            "buffer" : 0,
            "byteLength" : 48,
            "byteOffset" : 24144
        },
        {
            "buffer" : 0,
            "byteLength" : 192,
            "byteOffset" : 24192
        },
        {
            "buffer" : 0,
            "byteLength" : 192,
            "byteOffset" : 24384
        },
        {
            "buffer" : 0,
            "byteLength" : 128,
            "byteOffset" : 24576
        },
        {
            "buffer" : 0,
            "byteLength" : 48,
            "byteOffset" : 24704
        },
        {
            "buffer" : 0,
            "byteLength" : 48,
            "byteOffset" : 24752
        },
        {
            "buffer" : 0,
            "byteLength" : 48,
            "byteOffset" : 24800
        },
        {
            "buffer" : 0,
            "byteLength" : 32,
            "byteOffset" : 24848
        },
        {
            "buffer" : 0,
            "byteLength" : 12,
            "byteOffset" : 24880
        }
    ],
    "samplers" : [
        {
            "magFilter" : 9729,
            "minFilter" : 9987
        }
    ],
    "buffers" : [
        {
            "byteLength" : 24892,
            "uri" : "br2.bin"
        }
    ]
}
