{
    "asset" : {
        "generator" : "Khronos glTF Blender I/O v3.4.50",
        "version" : "2.0"
    },
    "scene" : 0,
    "scenes" : [
        {
            "name" : "Scene",
            "nodes" : [
                21
            ]
        }
    ],
    "nodes" : [
        {
            "name" : "group_73",
            "translation" : [
                0.41614049673080444,
                -2.037374973297119,
                -3.7698473930358887
            ]
        },
        {
            "children" : [
                0
            ],
            "name" : "group_72",
            "translation" : [
                6.75,
                8.533390998840332,
                18.985742568969727
            ]
        },
        {
            "name" : "group_75",
            "rotation" : [
                0.32926076650619507,
                0,
                0,
                0.9442390203475952
            ],
            "translation" : [
                0.8479993343353271,
                0.8462296724319458,
                0.01879063807427883
            ]
        },
        {
            "name" : "group_76",
            "translation" : [
                1.6117792129516602,
                0.2587180435657501,
                -0.6713986396789551
            ]
        },
        {
            "name" : "group_77",
            "rotation" : [
                0.636749804019928,
                -0.30748915672302246,
                -0.6367499232292175,
                0.30748921632766724
            ],
            "translation" : [
                4.611780166625977,
                1.865880012512207,
                0.8488158583641052
            ]
        },
        {
            "children" : [
                2,
                3,
                4
            ],
            "name" : "group_74",
            "translation" : [
                -0.8480008244514465,
                5.225460052490234,
                19.393070220947266
            ]
        },
        {
            "name" : "group_80",
            "translation" : [
                2.9421322345733643,
                -0.25786781311035156,
                1.475085735321045
            ]
        },
        {
            "children" : [
                6
            ],
            "name" : "group_79",
            "translation" : [
                3.321653127670288,
                0.5750000476837158,
                0.2628365457057953
            ]
        },
        {
            "children" : [
                7
            ],
            "name" : "group_78",
            "translation" : [
                1.5570863485336304,
                6.833615779876709,
                -0.0026115109212696552
            ]
        },
        {
            "name" : "group_81",
            "translation" : [
                1.808403491973877,
                5.728272914886475,
                3.6194140911102295
            ]
        },
        {
            "name" : "group_84",
            "rotation" : [
                0.32926076650619507,
                0,
                0,
                0.9442390203475952
            ],
            "translation" : [
                5.078739643096924,
                6.516549110412598,
                19.921602249145508
            ]
        },
        {
            "mesh" : 0,
            "name" : "showerbot"
        },
        {
            "children" : [
                11
            ],
            "name" : "Group_55"
        },
        {
            "children" : [
                12
            ],
            "name" : "instance_4",
            "translation" : [
                1.0137765407562256,
                5.732861042022705,
                1.3694119453430176
            ]
        },
        {
            "name" : "Group_55.001",
            "translation" : [
                0,
                0,
                -3.3910728234332055e-06
            ]
        },
        {
            "children" : [
                14
            ],
            "name" : "instance_5",
            "rotation" : [
                0,
                0,
                -1,
                7.105427357601002e-15
            ],
            "scale" : [
                -1,
                -1,
                -1
            ],
            "translation" : [
                1.0137763023376465,
                5.732861042022705,
                27.869422912597656
            ]
        },
        {
            "children" : [
                1,
                5,
                8,
                9,
                10,
                13,
                15
            ],
            "name" : "group_71",
            "rotation" : [
                0,
                0,
                0.7071068286895752,
                0.7071067094802856
            ],
            "translation" : [
                6.0934977531433105,
                -4.166714191436768,
                14.119065284729004
            ]
        },
        {
            "name" : "group_87",
            "translation" : [
                -161.91860961914062,
                -2.821894645690918,
                -92.74501037597656
            ]
        },
        {
            "children" : [
                17
            ],
            "name" : "group_86",
            "rotation" : [
                0.5,
                0.5,
                0.5,
                0.5
            ],
            "translation" : [
                89.67913055419922,
                157.7716827392578,
                9.746452331542969
            ]
        },
        {
            "children" : [
                16,
                18
            ],
            "name" : "SketchUp"
        },
        {
            "children" : [
                19
            ],
            "name" : "showebot"
        },
        {
            "children" : [
                20
            ],
            "name" : "Sketchfab_model",
            "rotation" : [
                -0.70710688829422,
                0,
                0,
                0.7071066498756409
            ],
            "scale" : [
                0.02857142873108387,
                0.02857143245637417,
                0.02857143245637417
            ]
        }
    ],
    "materials" : [
        {
            "name" : "88775-BL-B1",
            "pbrMetallicRoughness" : {
                "baseColorTexture" : {
                    "index" : 0
                },
                "metallicFactor" : 0.8492758870124817,
                "roughnessFactor" : 0.27610519528388977
            }
        },
        {
            "name" : "Metal_Corrogated_Shiny",
            "pbrMetallicRoughness" : {
                "baseColorTexture" : {
                    "index" : 1
                },
                "metallicFactor" : 0,
                "roughnessFactor" : 0.6000000238418579
            }
        },
        {
            "name" : "T66675-BL-B1",
            "pbrMetallicRoughness" : {
                "baseColorTexture" : {
                    "index" : 2
                },
                "metallicFactor" : 0.5017149448394775,
                "roughnessFactor" : 0.3309832215309143
            }
        },
        {
            "name" : "T60975-BL-B1",
            "pbrMetallicRoughness" : {
                "baseColorTexture" : {
                    "index" : 3
                },
                "metallicFactor" : 0.5809832215309143,
                "roughnessFactor" : 0.2700076103210449
            }
        }
    ],
    "meshes" : [
        {
            "name" : "Material2.243",
            "primitives" : [
                {
                    "attributes" : {
                        "POSITION" : 0,
                        "TEXCOORD_0" : 1,
                        "NORMAL" : 2
                    },
                    "indices" : 3,
                    "material" : 0
                },
                {
                    "attributes" : {
                        "POSITION" : 4,
                        "TEXCOORD_0" : 5,
                        "NORMAL" : 6
                    },
                    "indices" : 7,
                    "material" : 1
                },
                {
                    "attributes" : {
                        "POSITION" : 8,
                        "TEXCOORD_0" : 9,
                        "NORMAL" : 10
                    },
                    "indices" : 11,
                    "material" : 2
                },
                {
                    "attributes" : {
                        "POSITION" : 12,
                        "TEXCOORD_0" : 13,
                        "NORMAL" : 14
                    },
                    "indices" : 15,
                    "material" : 3
                }
            ]
        }
    ],
    "textures" : [
        {
            "sampler" : 0,
            "source" : 0
        },
        {
            "sampler" : 0,
            "source" : 1
        },
        {
            "sampler" : 0,
            "source" : 2
        },
        {
            "sampler" : 0,
            "source" : 3
        }
    ],
    "images" : [
        {
            "mimeType" : "image/jpeg",
            "name" : "88775-BL-B1_baseColor",
            "uri" : "88775-BL-B1_baseColor.jpg"
        },
        {
            "mimeType" : "image/jpeg",
            "name" : "Metal_Corrogated_Shiny_baseColor",
            "uri" : "Metal_Corrogated_Shiny_baseColor.jpg"
        },
        {
            "mimeType" : "image/jpeg",
            "name" : "T66675-BL-B1_baseColor",
            "uri" : "T66675-BL-B1_baseColor.jpg"
        },
        {
            "mimeType" : "image/jpeg",
            "name" : "T60975-BL-B1_baseColor",
            "uri" : "T60975-BL-B1_baseColor.jpg"
        }
    ],
    "accessors" : [
        {
            "bufferView" : 0,
            "componentType" : 5126,
            "count" : 4857,
            "max" : [
                0.21895484626293182,
                0.5586454272270203,
                0.14352034032344818
            ],
            "min" : [
                -0.07414551079273224,
                -0.29019030928611755,
                -0.15751904249191284
            ],
            "type" : "VEC3"
        },
        {
            "bufferView" : 1,
            "componentType" : 5126,
            "count" : 4857,
            "type" : "VEC2"
        },
        {
            "bufferView" : 2,
            "componentType" : 5126,
            "count" : 4857,
            "type" : "VEC3"
        },
        {
            "bufferView" : 3,
            "componentType" : 5123,
            "count" : 16446,
            "type" : "SCALAR"
        },
        {
            "bufferView" : 4,
            "componentType" : 5126,
            "count" : 492,
            "max" : [
                0.02025909535586834,
                0.3100872039794922,
                -0.01075802929699421
            ],
            "min" : [
                -0.027827074751257896,
                -0.33401164412498474,
                -0.12325111776590347
            ],
            "type" : "VEC3"
        },
        {
            "bufferView" : 5,
            "componentType" : 5126,
            "count" : 492,
            "type" : "VEC2"
        },
        {
            "bufferView" : 6,
            "componentType" : 5126,
            "count" : 492,
            "type" : "VEC3"
        },
        {
            "bufferView" : 7,
            "componentType" : 5123,
            "count" : 1254,
            "type" : "SCALAR"
        },
        {
            "bufferView" : 8,
            "componentType" : 5126,
            "count" : 1077,
            "max" : [
                0.04889335483312607,
                -0.45830249786376953,
                -0.04708263650536537
            ],
            "min" : [
                -0.07414551824331284,
                -0.5265364050865173,
                -0.16173511743545532
            ],
            "type" : "VEC3"
        },
        {
            "bufferView" : 9,
            "componentType" : 5126,
            "count" : 1077,
            "type" : "VEC2"
        },
        {
            "bufferView" : 10,
            "componentType" : 5126,
            "count" : 1077,
            "type" : "VEC3"
        },
        {
            "bufferView" : 11,
            "componentType" : 5123,
            "count" : 4182,
            "type" : "SCALAR"
        },
        {
            "bufferView" : 12,
            "componentType" : 5126,
            "count" : 1303,
            "max" : [
                0.03241425007581711,
                -0.4154535233974457,
                0.14288701117038727
            ],
            "min" : [
                -0.07414551079273224,
                -0.5642358660697937,
                -0.0007255069795064628
            ],
            "type" : "VEC3"
        },
        {
            "bufferView" : 13,
            "componentType" : 5126,
            "count" : 1303,
            "type" : "VEC2"
        },
        {
            "bufferView" : 14,
            "componentType" : 5126,
            "count" : 1303,
            "type" : "VEC3"
        },
        {
            "bufferView" : 15,
            "componentType" : 5123,
            "count" : 6456,
            "type" : "SCALAR"
        }
    ],
    "bufferViews" : [
        {
            "buffer" : 0,
            "byteLength" : 58284,
            "byteOffset" : 0,
            "target" : 34962
        },
        {
            "buffer" : 0,
            "byteLength" : 38856,
            "byteOffset" : 58284,
            "target" : 34962
        },
        {
            "buffer" : 0,
            "byteLength" : 58284,
            "byteOffset" : 97140,
            "target" : 34962
        },
        {
            "buffer" : 0,
            "byteLength" : 32892,
            "byteOffset" : 155424,
            "target" : 34963
        },
        {
            "buffer" : 0,
            "byteLength" : 5904,
            "byteOffset" : 188316,
            "target" : 34962
        },
        {
            "buffer" : 0,
            "byteLength" : 3936,
            "byteOffset" : 194220,
            "target" : 34962
        },
        {
            "buffer" : 0,
            "byteLength" : 5904,
            "byteOffset" : 198156,
            "target" : 34962
        },
        {
            "buffer" : 0,
            "byteLength" : 2508,
            "byteOffset" : 204060,
            "target" : 34963
        },
        {
            "buffer" : 0,
            "byteLength" : 12924,
            "byteOffset" : 206568,
            "target" : 34962
        },
        {
            "buffer" : 0,
            "byteLength" : 8616,
            "byteOffset" : 219492,
            "target" : 34962
        },
        {
            "buffer" : 0,
            "byteLength" : 12924,
            "byteOffset" : 228108,
            "target" : 34962
        },
        {
            "buffer" : 0,
            "byteLength" : 8364,
            "byteOffset" : 241032,
            "target" : 34963
        },
        {
            "buffer" : 0,
            "byteLength" : 15636,
            "byteOffset" : 249396,
            "target" : 34962
        },
        {
            "buffer" : 0,
            "byteLength" : 10424,
            "byteOffset" : 265032,
            "target" : 34962
        },
        {
            "buffer" : 0,
            "byteLength" : 15636,
            "byteOffset" : 275456,
            "target" : 34962
        },
        {
            "buffer" : 0,
            "byteLength" : 12912,
            "byteOffset" : 291092,
            "target" : 34963
        }
    ],
    "samplers" : [
        {
            "magFilter" : 9729,
            "minFilter" : 9987
        }
    ],
    "buffers" : [
        {
            "byteLength" : 304004,
            "uri" : "untitled.bin"
        }
    ]
}
