<svg xmlns="http://www.w3.org/2000/svg" viewBox="0 0 95.35 182.85"><defs><style>.cls-1,.cls-3,.cls-5{fill:none;}.cls-1,.cls-4,.cls-5{stroke:#27292d;stroke-linecap:round;}.cls-1,.cls-3,.cls-4,.cls-5{stroke-linejoin:round;}.cls-1,.cls-4{stroke-width:0.25px;}.cls-2{fill:#66dfff;stroke:#e5e5e5;opacity:0.2;}.cls-2,.cls-5{stroke-width:0.5px;}.cls-3{stroke:#3bd5ff;}.cls-4{fill:#fff;}</style></defs><g id="Livello_2" data-name="Livello 2"><g id="Livello_1-2" data-name="Livello 1"><line class="cls-1" x1="9.83" y1="143.02" x2="45.33" y2="122.83"/><path class="cls-2" d="M45.22,60,9.62,40.13v103l35.6,19.3Z"/><path class="cls-1" d="M7.42,158l-7.3-4.19V25.33l7.3,4.09Z"/><path class="cls-1" d="M9.72,143.13v13.3l35.4,20.5"/><path class="cls-1" d="M44.92,59.23V8.42"/><path class="cls-1" d="M95.23,29.62,44.92.12.22,25.33l7.4,4.2L44.92,8.42l36.6,21.1L45.33,50l7.19,4.1Z"/><path class="cls-1" d="M52.52,182.72l42.71-24V29.62L52.52,54.13Z"/><path class="cls-3" d="M45.33,60,9.72,40.13v103l35.6,19.3Z"/><line class="cls-1" x1="7.42" y1="158.02" x2="9.72" y2="156.43"/><path class="cls-4" d="M52.52,182.63l-7.19-4.2V50l7.19,4.1Z"/><line class="cls-3" x1="21.12" y1="46.5" x2="21.12" y2="149.39"/><line class="cls-3" x1="32.81" y1="53.03" x2="32.81" y2="155.47"/><path class="cls-5" d="M11.62,105a.37.37,0,0,1-.1-.3V92.92c0-.1.1-.2.2-.3s.1-.1.2-.1l1.1-.7.1-.1h0l.1.1.1.1h.2c.1.1.3.1.4.2s.1.1.2.1v1.1h0l-.1.11-1,.7-.1.1-.1.1v9.1l.3-.2h0l.1.1.6.3a.35.35,0,0,1,.2.1h0v1h0l-.1.1-1,.6a.37.37,0,0,1-.3.1h-.1c-.3-.1-.5-.3-.8-.4C11.72,105.12,11.62,105.12,11.62,105Z"/></g></g></svg>